<?xml version="1.0" encoding="UTF-8"?> <svg xmlns="http://www.w3.org/2000/svg" width="220" height="63" viewBox="0 0 220 63" fill="none"> <path fill-rule="evenodd" clip-rule="evenodd" d="M0 38.6406C15.9549 31.0786 28.5857 18.1987 37.8928 0C37.8928 20.9407 37.8928 41.8812 37.8928 62.8219C42.6294 52.7669 50.6897 44.7063 62.0744 38.6406C41.3829 38.6406 20.6915 38.6406 0 38.6406Z" fill="#1C5786"></path> <path fill-rule="evenodd" clip-rule="evenodd" d="M44.3809 32.7654H50.0233L50.585 22.5764C50.5985 22.3181 50.6117 22.1175 50.6341 21.9704C50.6518 21.8233 50.6785 21.752 50.7186 21.7475C50.7722 21.7435 50.8256 21.8233 50.8882 21.9884C50.946 22.1532 51.0128 22.4206 51.0931 22.7906L52.6977 29.9574C52.8403 30.6171 52.9829 31.1519 53.1255 31.562C53.2636 31.9766 53.4197 32.2929 53.589 32.5157C53.7585 32.7341 53.9589 32.8858 54.1908 32.9703C54.4224 33.0506 54.6989 33.0908 55.0243 33.0863C55.3673 33.0903 55.6615 33.0506 55.9023 32.9658C56.1384 32.8813 56.3433 32.7297 56.5173 32.5023C56.6866 32.2794 56.8427 31.963 56.9809 31.5529C57.119 31.1385 57.2616 30.6081 57.4042 29.9574L59.0354 22.7906C59.1157 22.4206 59.178 22.1532 59.2316 21.9884C59.2808 21.8233 59.3341 21.7431 59.3832 21.7475C59.4234 21.7525 59.45 21.8233 59.4722 21.9704C59.4902 22.1175 59.5034 22.3181 59.5169 22.5764L60.0786 32.7654H65.721L64.4642 17.7094C64.4463 17.4644 64.4061 17.1702 64.3438 16.8316C64.2814 16.4928 64.1745 16.145 64.0274 15.7885C63.8758 15.4275 63.6618 15.0931 63.3811 14.7812C63.1046 14.4694 62.7392 14.2153 62.2892 14.0236C61.8345 13.8319 61.2775 13.7294 60.6133 13.7249C59.8557 13.7289 59.2361 13.8318 58.7502 14.0325C58.2646 14.2329 57.8766 14.4915 57.5914 14.8168C57.3062 15.1422 57.0878 15.4942 56.9362 15.8777C56.7846 16.2608 56.6644 16.6399 56.5751 17.0144L55.3184 22.0151C55.2648 22.2023 55.2157 22.3404 55.1758 22.4339C55.1312 22.5277 55.0911 22.5764 55.0509 22.5764C55.0108 22.5764 54.9662 22.5277 54.9173 22.4339C54.8682 22.3404 54.8236 22.2023 54.7834 22.0151L53.5533 17.0144C53.473 16.6399 53.3573 16.2608 53.2057 15.8777C53.0541 15.4942 52.8358 15.1422 52.5461 14.8168C52.2609 14.4915 51.8729 14.2329 51.3828 14.0325C50.8924 13.8318 50.2729 13.7294 49.5152 13.7249C48.8513 13.7289 48.2941 13.8319 47.8393 14.0236C47.3893 14.2153 47.0238 14.4694 46.7476 14.7812C46.4666 15.0931 46.2527 15.4275 46.1011 15.7885C45.954 16.145 45.8471 16.4928 45.7847 16.8316C45.7224 17.1702 45.6823 17.4644 45.6643 17.7094L44.3809 32.7654ZM70.076 32.7654H75.9057V20.9453C75.9017 20.7625 75.9097 20.5666 75.9323 20.3571C75.9548 20.1475 76.0081 19.9515 76.0884 19.7643C76.1732 19.577 76.3023 19.4254 76.4806 19.3094C76.6588 19.1893 76.9042 19.1313 77.216 19.1268C77.5549 19.1318 77.8179 19.2026 78.0049 19.3407C78.1921 19.4746 78.3302 19.6439 78.4105 19.8446C78.4908 20.045 78.5399 20.2457 78.5576 20.4461C78.5755 20.6468 78.5845 20.8116 78.58 20.9453V22.3092H76.6546V27.0694H78.58V32.7654H84.4097V22.7906C84.4137 22.2735 84.4097 21.7475 84.3965 21.2083C84.3785 20.669 84.3339 20.1298 84.2494 19.586C84.1691 19.0423 84.0265 18.5072 83.8258 17.977C83.6254 17.4509 83.3444 16.9428 82.9747 16.4527C82.6092 15.958 82.1322 15.4943 81.5483 15.062C80.9243 14.6075 80.2469 14.2731 79.507 14.0502C78.767 13.8318 78.0138 13.7249 77.2427 13.7249C76.4629 13.7249 75.7007 13.8318 74.9563 14.0502C74.2166 14.2731 73.5344 14.6075 72.9107 15.062C72.3223 15.4943 71.8454 15.958 71.4754 16.4527C71.1099 16.9428 70.8292 17.4509 70.6285 17.977C70.4325 18.5072 70.2989 19.0423 70.2186 19.586C70.1428 20.1298 70.0982 20.669 70.0847 21.2083C70.0757 21.7475 70.0715 22.2735 70.0757 22.7906L70.076 32.7654ZM95.6105 32.7654V21.3197C95.6055 21.1013 95.6145 20.8652 95.6329 20.6154C95.6506 20.3659 95.6997 20.1253 95.78 19.9024C95.8645 19.675 95.9985 19.4923 96.1855 19.3497C96.3727 19.2071 96.6357 19.1313 96.9746 19.1268C97.2286 19.1268 97.4601 19.1938 97.6698 19.3139C97.8792 19.4388 98.044 19.6082 98.1734 19.8176C98.298 20.0315 98.3606 20.2724 98.3649 20.5441C98.3649 20.7895 98.3071 21.0166 98.1957 21.2305C98.0842 21.4446 97.9149 21.6184 97.6875 21.7565C97.4601 21.8902 97.1795 21.957 96.8407 21.9615H96.3595V27.1497H97.3488C97.7367 27.1537 98.1911 27.1317 98.7171 27.0826C99.2384 27.0292 99.7913 26.9088 100.366 26.7261C100.941 26.5388 101.498 26.249 102.042 25.8524C102.586 25.4557 103.072 24.9165 103.499 24.2346C103.843 23.6684 104.079 23.0624 104.217 22.4207C104.351 21.7742 104.413 21.1235 104.409 20.4641C104.409 19.8979 104.346 19.3407 104.226 18.7969C104.101 18.249 103.914 17.7229 103.66 17.2283C103.482 16.8715 103.232 16.4928 102.902 16.0917C102.577 15.6905 102.153 15.3116 101.636 14.955C101.12 14.5985 100.491 14.3043 99.7466 14.077C99.0025 13.8498 98.1199 13.7339 97.1082 13.7249C96.5465 13.7249 95.985 13.774 95.4323 13.8764C94.8796 13.9789 94.3403 14.1395 93.819 14.3667C93.0167 14.7277 92.3615 15.1513 91.8489 15.6369C91.3364 16.1228 90.9397 16.6443 90.6545 17.2057C90.369 17.7674 90.1641 18.3469 90.0394 18.9353C89.9145 19.5279 89.8387 20.1162 89.8121 20.6911C89.7854 21.2705 89.7764 21.8188 89.7809 22.3358V32.7654H95.6105ZM115.289 14.0457H109.459V29.2354C109.454 29.4361 109.463 29.6901 109.481 30.0065C109.503 30.3184 109.562 30.6527 109.651 31.0048C109.744 31.3615 109.9 31.6956 110.114 32.0077C110.324 32.3241 110.622 32.5782 111.006 32.7789C111.389 32.9748 111.879 33.0773 112.481 33.0863C113.051 33.0813 113.542 32.9928 113.952 32.8232C114.362 32.654 114.709 32.4221 114.999 32.1282C115.289 31.8385 115.538 31.5129 115.748 31.1476C115.962 30.7821 116.153 30.4032 116.332 30.011L118.525 25.2776C118.672 24.9657 118.797 24.707 118.899 24.5108C119.002 24.3149 119.073 24.2121 119.113 24.2079C119.14 24.2039 119.158 24.2524 119.162 24.3506C119.171 24.4531 119.171 24.6224 119.171 24.8674C119.171 25.1083 119.167 25.4426 119.167 25.8659V32.7654H124.997V17.2816C125.002 17.13 124.997 16.9161 124.979 16.6354C124.961 16.3547 124.908 16.0469 124.823 15.7171C124.734 15.3872 124.582 15.0709 124.373 14.7677C124.163 14.4648 123.865 14.2196 123.486 14.0236C123.102 13.8319 122.608 13.7294 122.001 13.7249C121.422 13.7289 120.927 13.8183 120.517 13.9924C120.103 14.1661 119.751 14.3981 119.461 14.692C119.171 14.9817 118.922 15.3116 118.708 15.677C118.494 16.038 118.302 16.417 118.124 16.8002L115.771 21.7475C115.628 22.0373 115.53 22.2334 115.481 22.3403C115.427 22.4518 115.392 22.501 115.37 22.4965C115.343 22.4925 115.325 22.474 115.312 22.4339C115.303 22.3938 115.294 22.3493 115.294 22.3002C115.289 22.2555 115.289 22.2245 115.289 22.2023V14.0457ZM130.367 32.7654H136.197V25.4915H139.112V32.7654H144.942V14.0457H139.112V20.5173H136.197V14.0457H130.367V32.7654ZM163.336 14.0457H156.49C156 14.0367 155.51 14.0638 155.028 14.1171C154.542 14.1707 154.07 14.3042 153.602 14.5092C153.139 14.7144 152.693 15.0442 152.265 15.4897C151.886 15.8953 151.579 16.3903 151.342 16.9697C151.111 17.5536 150.99 18.1998 150.981 18.9129C150.981 19.1939 151.004 19.4655 151.044 19.7375C151.084 20.0092 151.142 20.2769 151.222 20.5441C151.351 20.9632 151.548 21.3821 151.806 21.8056C152.06 22.2245 152.403 22.6255 152.826 23.0045C152.426 23.1693 152.082 23.3611 151.797 23.5795C151.507 23.7979 151.271 24.0207 151.08 24.2523C150.888 24.4797 150.736 24.6936 150.625 24.8898C150.518 25.0812 150.438 25.2419 150.393 25.3578C150.264 25.6787 150.17 26.013 150.121 26.3519C150.068 26.6949 150.045 27.0427 150.045 27.3902C150.045 27.8894 150.099 28.3753 150.21 28.8432C150.326 29.3157 150.513 29.7614 150.772 30.1893C151.03 30.6126 151.378 31.0091 151.81 31.3746C152.207 31.7045 152.608 31.9676 153.014 32.1548C153.424 32.3466 153.829 32.4847 154.231 32.5692C154.632 32.6585 155.024 32.7117 155.407 32.7341C155.786 32.7563 156.147 32.7699 156.49 32.7654H163.336V27.5775H157.614C157.484 27.5825 157.333 27.5724 157.159 27.5549C156.989 27.5372 156.824 27.4927 156.66 27.4259C156.499 27.3546 156.361 27.2387 156.254 27.0826C156.147 26.9223 156.094 26.7039 156.089 26.4274C156.094 26.0843 156.174 25.8168 156.321 25.6254C156.468 25.4381 156.651 25.3042 156.86 25.2242C157.074 25.1439 157.279 25.0948 157.475 25.0813C157.676 25.0637 157.827 25.0592 157.934 25.0637H163.336V20.9989H158.068C157.939 21.0029 157.787 20.9938 157.618 20.9763C157.453 20.9586 157.288 20.9141 157.128 20.8383C156.972 20.7625 156.838 20.6468 156.731 20.4818C156.628 20.3125 156.575 20.085 156.57 19.7953C156.566 19.5946 156.606 19.3987 156.686 19.207C156.767 19.0152 156.914 18.8595 157.132 18.7346C157.35 18.6055 157.662 18.5429 158.068 18.5387H163.336V14.0457ZM174.27 32.7654V21.3197C174.265 21.1013 174.275 20.8652 174.292 20.6154C174.31 20.3659 174.359 20.1253 174.439 19.9024C174.524 19.675 174.658 19.4923 174.844 19.3497C175.032 19.2071 175.295 19.1313 175.634 19.1268C175.888 19.1268 176.119 19.1938 176.329 19.3139C176.538 19.4388 176.703 19.6082 176.833 19.8176C176.957 20.0315 177.02 20.2724 177.024 20.5441C177.024 20.7895 176.966 21.0166 176.855 21.2305C176.743 21.4446 176.574 21.6184 176.347 21.7565C176.119 21.8902 175.838 21.957 175.5 21.9615H175.019V27.1497H176.008C176.396 27.1537 176.85 27.1317 177.376 27.0826C177.898 27.0292 178.45 26.9088 179.025 26.7261C179.6 26.5388 180.157 26.249 180.701 25.8524C181.245 25.4557 181.731 24.9165 182.159 24.2346C182.502 23.6684 182.738 23.0624 182.876 22.4207C183.01 21.7742 183.072 21.1235 183.068 20.4641C183.068 19.8979 183.005 19.3407 182.885 18.7969C182.76 18.249 182.573 17.7229 182.319 17.2283C182.141 16.8715 181.891 16.4928 181.561 16.0917C181.236 15.6905 180.813 15.3116 180.295 14.955C179.779 14.5985 179.15 14.3043 178.406 14.077C177.661 13.8498 176.779 13.7339 175.767 13.7249C175.205 13.7249 174.644 13.774 174.091 13.8764C173.539 13.9789 172.999 14.1395 172.478 14.3667C171.676 14.7277 171.021 15.1513 170.508 15.6369C169.995 16.1228 169.599 16.6443 169.313 17.2057C169.028 17.7674 168.823 18.3469 168.698 18.9353C168.574 19.5279 168.498 20.1162 168.471 20.6911C168.444 21.2705 168.435 21.8188 168.44 22.3358V32.7654H174.27ZM188.118 14.0457V19.3676C188.113 19.791 188.127 20.2412 188.154 20.7047C188.185 21.1726 188.252 21.6406 188.363 22.1086C188.47 22.581 188.644 23.0312 188.88 23.4635C189.116 23.9003 189.442 24.297 189.856 24.658C190.271 25.019 190.797 25.3221 191.434 25.5717C192.04 25.7901 192.66 25.9328 193.293 25.9951C193.926 26.0577 194.545 26.0887 195.151 26.0798H195.873V21.0522H195.472C195.329 21.0572 195.187 21.0482 195.049 21.039C194.906 21.0255 194.773 20.9944 194.639 20.9408C194.51 20.8874 194.385 20.7981 194.269 20.6779C194.14 20.5353 194.05 20.3837 194.006 20.2321C193.961 20.0761 193.943 19.9246 193.943 19.7775C193.943 19.6304 193.943 19.4923 193.948 19.3676V14.0457H188.118ZM189.615 27.4169V32.7654H195.392C195.922 32.7704 196.439 32.7518 196.943 32.7117C197.447 32.6718 197.937 32.5871 198.414 32.4535C198.891 32.3241 199.345 32.1237 199.787 31.8517C200.223 31.5799 200.638 31.2189 201.034 30.7597C201.378 30.3585 201.65 29.9487 201.841 29.5296C202.037 29.1107 202.18 28.6872 202.265 28.2504C202.354 27.8136 202.407 27.3681 202.425 26.9133C202.447 26.4588 202.456 25.9906 202.452 25.5181V14.0457H196.622V25.9462C196.627 26.0532 196.622 26.1778 196.613 26.3159C196.604 26.4498 196.577 26.5835 196.537 26.7171C196.493 26.851 196.426 26.9669 196.328 27.0694C196.167 27.2252 195.918 27.3234 195.579 27.3636C195.245 27.4037 194.835 27.4214 194.349 27.4169H189.615ZM219.616 27.4169H218.172C217.9 27.4219 217.597 27.4079 217.254 27.3723C216.915 27.3411 216.563 27.2698 216.198 27.1584C215.837 27.0427 215.48 26.8687 215.132 26.6281C214.789 26.3875 214.473 26.0618 214.188 25.6519C213.974 25.3266 213.813 24.9744 213.706 24.5912C213.599 24.2122 213.546 23.8246 213.546 23.4324C213.546 23.0313 213.599 22.6391 213.706 22.2601C213.813 21.8814 213.974 21.5202 214.188 21.1861C214.464 20.776 214.771 20.4461 215.101 20.2056C215.436 19.9647 215.783 19.7865 216.14 19.6663C216.496 19.5504 216.848 19.4746 217.196 19.4389C217.544 19.4078 217.869 19.3898 218.172 19.3943H219.616V14.0457H217.102C216.131 14.0507 215.253 14.1571 214.468 14.3578C213.684 14.5628 212.984 14.8304 212.373 15.1557C211.763 15.4856 211.237 15.842 210.787 16.2207C210.337 16.6041 209.958 16.9785 209.655 17.3397C209.352 17.7049 209.115 18.0261 208.946 18.2978C208.465 19.0645 208.104 19.8889 207.863 20.7625C207.622 21.6406 207.502 22.5277 207.502 23.4324C207.502 24.1946 207.591 24.9477 207.765 25.6832C207.939 26.4232 208.197 27.1362 208.545 27.8181C208.741 28.2015 209 28.6159 209.316 29.0616C209.637 29.5074 210.025 29.9442 210.493 30.381C210.956 30.8133 211.504 31.2099 212.133 31.571C212.766 31.9275 213.492 32.2171 214.317 32.431C215.137 32.6494 216.069 32.7609 217.102 32.7654H219.616V27.4169Z" fill="#1C5786"></path> </svg> 